<?xml version="1.0" standalone="no"?>
<!DOCTYPE svg PUBLIC "-//W3C//DTD SVG 20010904//EN"
 "http://www.w3.org/TR/2001/REC-SVG-20010904/DTD/svg10.dtd">
<svg version="1.0" xmlns="http://www.w3.org/2000/svg"
 width="961.000000pt" height="200.000000pt" viewBox="0 0 961.000000 200.000000"
 preserveAspectRatio="xMidYMid meet">

<g transform="translate(0.000000,200.000000) scale(0.100000,-0.100000)"
fill="#000000" stroke="none">
<path d="M3290 1520 c8 -5 20 -10 25 -10 6 0 3 5 -5 10 -8 5 -19 10 -25 10 -5
0 -3 -5 5 -10z"/>
<path d="M3580 1450 c0 -5 5 -10 11 -10 5 0 7 5 4 10 -3 6 -8 10 -11 10 -2 0
-4 -4 -4 -10z"/>
<path d="M3755 1287 c-11 -28 -18 -90 -24 -214 -5 -118 -8 -134 -29 -155 -12
-14 -19 -28 -15 -31 3 -4 -1 -7 -10 -7 -10 0 -17 -4 -17 -10 0 -5 -9 -10 -19
-10 -11 0 -21 -4 -23 -8 -1 -4 -42 -25 -90 -47 -49 -22 -88 -44 -88 -49 0 -6
5 -5 12 2 7 7 23 12 38 12 24 -1 24 -1 6 -15 -26 -20 -46 -18 -74 5 -24 20
-35 65 -67 285 -14 98 -14 98 -10 25 5 -81 22 -225 30 -251 3 -9 0 -16 -8 -16
-7 0 -44 -11 -83 -26 -38 -14 -76 -28 -85 -30 -11 -4 -15 -14 -11 -36 4 -26
13 -35 66 -61 85 -42 161 -48 251 -21 92 28 104 35 77 50 -11 6 -29 11 -39 12
-42 1 208 79 254 79 15 0 45 -9 66 -20 20 -11 37 -17 37 -13 0 5 13 91 29 193
30 189 29 211 -7 208 -59 -4 -62 -2 -62 62 0 36 -4 60 -11 60 -5 0 -7 -4 -4
-10 3 -5 2 -10 -3 -10 -11 0 -26 30 -23 44 1 5 -5 4 -13 -4 -9 -7 -16 -8 -16
-2 0 15 -30 23 -35 9z m-205 -511 c0 -2 -7 -6 -15 -10 -8 -3 -15 -1 -15 4 0 6
7 10 15 10 8 0 15 -2 15 -4z m-15 -46 c-11 -5 -29 -8 -40 -8 -16 0 -15 2 5 8
34 11 60 11 35 0z"/>
<path d="M3370 1150 c20 -13 43 -13 35 0 -3 6 -16 10 -28 10 -18 0 -19 -2 -7
-10z"/>
<path d="M3292 1005 c0 -16 2 -22 5 -12 2 9 2 23 0 30 -3 6 -5 -1 -5 -18z"/>
<path d="M3301 934 c0 -11 3 -14 6 -6 3 7 2 16 -1 19 -3 4 -6 -2 -5 -13z"/>
<path d="M3272 875 c0 -16 2 -22 5 -12 2 9 2 23 0 30 -3 6 -5 -1 -5 -18z"/>
<path d="M3622 694 c-7 -8 -8 -14 -3 -14 10 0 25 19 20 25 -2 1 -10 -3 -17
-11z"/>
<path d="M3010 550 c-9 -6 -10 -10 -3 -10 6 0 15 5 18 10 8 12 4 12 -15 0z"/>
<path d="M3080 538 c0 -5 -7 -8 -15 -8 -8 0 -15 -7 -15 -15 0 -19 0 -19 55 8
l45 24 -35 -1 c-19 -1 -35 -4 -35 -8z"/>
</g>
</svg>
